<?xml version="1.0" encoding="utf-8"?>
<!-- Generator: Adobe Illustrator 23.0.1, SVG Export Plug-In . SVG Version: 6.00 Build 0)  -->
<svg version="1.1" id="Layer_1" xmlns="http://www.w3.org/2000/svg" xmlns:xlink="http://www.w3.org/1999/xlink" x="0px" y="0px"
	 viewBox="0 0 1024 1024.5" style="enable-background:new 0 0 1024 1024.5;" xml:space="preserve">
<style type="text/css">
	.st0{fill:#000033;}
	.st1{fill:url(#SVGID_1_);stroke:#FFFFFF;stroke-width:2;stroke-miterlimit:10;}
	.st2{fill:#9966FF;stroke:#FFFFFF;stroke-width:2;stroke-miterlimit:10;}
	.st3{fill:#FFFFFF;}
	.st4{fill:url(#SVGID_2_);stroke:#FFFFFF;stroke-width:2;stroke-miterlimit:10;}
</style>
<rect class="st0" width="1020" height="1024.5"/>
<title>logo-niche-networks</title>
<linearGradient id="SVGID_1_" gradientUnits="userSpaceOnUse" x1="609.0999" y1="974.3201" x2="804.0038" y2="974.3201" gradientTransform="matrix(1 0 0 -1 0 1404.5693)">
	<stop  offset="4.000000e-02" style="stop-color:#9966FF"/>
	<stop  offset="0.5" style="stop-color:#330099"/>
	<stop  offset="1" style="stop-color:#220066"/>
</linearGradient>
<polyline class="st1" points="609.1,234 804,495.6 804,626.5 609.1,364.9 "/>
<rect x="805.7" y="234.1" class="st2" width="65.6" height="65.6"/>
<rect x="805.7" y="299.7" class="st2" width="65.6" height="65.6"/>
<rect x="871.3" y="234.1" class="st2" width="65.6" height="65.6"/>
<rect x="805.7" y="365.3" class="st2" width="65.6" height="65.6"/>
<rect x="805.7" y="430.9" class="st2" width="65.6" height="65.6"/>
<rect x="871.3" y="365.3" class="st2" width="65.6" height="65.6"/>
<rect x="871.3" y="430.9" class="st2" width="65.6" height="65.6"/>
<rect x="805.7" y="496.6" class="st2" width="65.6" height="65.6"/>
<rect x="805.7" y="562.2" class="st2" width="65.6" height="65.6"/>
<rect x="871.3" y="496.6" class="st2" width="65.6" height="65.6"/>
<rect x="871.3" y="562.2" class="st2" width="65.6" height="65.6"/>
<rect x="871.3" y="299.6" class="st2" width="65.6" height="65.6"/>
<path class="st3" d="M85.7,747.1v-70.3h18.5l14.6,25.8c4.4,7.8,8.2,15.8,11.5,24.1h0.3c-0.9-9.8-1.4-19.6-1.3-29.4v-20.5h14.6V747
	h-16.6L112.1,720c-4.5-8-8.6-16.3-12.2-24.8h-0.3c0.5,9.3,0.7,19.3,0.7,30.7v21.1L85.7,747.1z"/>
<path class="st3" d="M174.6,676.8v70.3h-15.9v-70.3H174.6z"/>
<path class="st3" d="M241,745.2c-2.9,1.4-9.5,3-18,3c-24.3,0-36.9-15.2-36.9-35.3c0-24,17.2-37.3,38.4-37.3c8.3,0,14.5,1.6,17.3,3.1
	l-3.2,12.6c-4.2-1.8-8.8-2.7-13.4-2.7c-12.5,0-22.4,7.6-22.4,23.3c0,14.1,8.3,22.9,22.5,22.9c4.5,0.1,9-0.7,13.3-2.2L241,745.2z"/>
<path class="st3" d="M268.4,676.8v27h26.2v-27h15.9v70.3h-15.9v-29.4h-26.2v29.4h-15.9v-70.3H268.4z"/>
<path class="st3" d="M367.2,717.4h-25.9v16.7h28.9v13h-44.8v-70.3h43.3v13h-27.4v14.6h25.9L367.2,717.4z"/>
<path class="st3" d="M404.3,747.1v-70.3h18.5l14.6,25.8c4.4,7.8,8.2,15.8,11.5,24.1h0.3c-0.9-9.8-1.4-19.6-1.3-29.4v-20.5h14.6V747
	h-16.7L430.7,720c-4.5-8.1-8.6-16.3-12.2-24.8h-0.3c0.5,9.3,0.7,19.3,0.7,30.7V747L404.3,747.1z"/>
<path class="st3" d="M519.1,717.4h-25.9v16.7h28.9v13h-44.8v-70.3h43.3v13h-27.4v14.6H519L519.1,717.4z"/>
<path class="st3" d="M548.1,690.2h-19v-13.4h54.1v13.4H564v57h-15.9V690.2z"/>
<path class="st3" d="M607,747.1l-16.7-70.3h17l5.3,28.9c1.5,8.4,3,17.5,4.1,24.6h0.2c1.1-7.6,2.8-16,4.6-24.8l6-28.7h16.9l5.6,29.7
	c1.5,8.2,2.7,15.7,3.7,23.5h0.2c1.1-7.8,2.6-16,4.1-24.4l5.7-28.7H680l-18.1,70.3h-17.1l-6-30.3c-1.4-7-2.5-13.7-3.4-21.6h-0.2
	c-1.2,7.9-2.3,14.6-4,21.7l-6.7,30.2L607,747.1z"/>
<path class="st3" d="M752.8,711.3c0,23.1-13.9,37-34.5,37c-20.8,0-33.1-15.8-33.1-35.8c0-21,13.5-36.8,34.2-36.8
	C741,675.7,752.8,691.8,752.8,711.3z M702,712.1c0,13.8,6.5,23.5,17.1,23.5c10.8,0,16.9-10.2,16.9-23.8c0-12.7-6-23.5-16.9-23.5
	C708.3,688.3,702,698.5,702,712.1L702,712.1z"/>
<path class="st3" d="M764.3,677.8c7-1.1,14.1-1.6,21.1-1.5c10.4,0,17.7,1.6,22.7,5.6c4.2,3.3,6.5,8.3,6.5,14.7
	c0,8.9-6.4,15.2-12.4,17.3v0.3c4.9,2,7.6,6.6,9.4,13.1c2.2,8,4.3,17.1,5.7,19.8h-16.3c-1.1-2-2.8-7.7-4.8-16.4s-4.9-11.1-11.5-11.2
	h-4.7v27.6h-15.8V677.8z M780.1,708h6.2c7.9,0,12.6-4,12.6-10.1c0-6.4-4.5-9.7-11.7-9.8c-2.4-0.1-4.8,0.1-7.1,0.5L780.1,708z"/>
<path class="st3" d="M827.2,676.8h15.8v31.1h0.3c1.5-2.7,3.2-5.2,4.8-7.7l15.9-23.4h19.5l-23.2,29.9l24.5,40.4h-18.5l-17.3-30.3
	l-6,7.4v23h-15.8V676.8z"/>
<path class="st3" d="M892.8,730.7c5.4,2.8,11.5,4.4,17.6,4.5c7.3,0,11.2-3,11.2-7.7c0-4.3-3.4-6.9-11.8-9.8
	c-11.7-4.2-19.4-10.5-19.4-20.8c0-12,10.1-21.1,26.6-21.1c8,0,13.8,1.6,18,3.6l-3.5,12.7c-4.6-2.2-9.6-3.3-14.7-3.3
	c-6.9,0-10.2,3.2-10.2,6.8c0,4.5,3.9,6.4,13,9.9c12.5,4.7,18.2,11.1,18.2,21c0,11.7-9,21.8-28.3,21.8c-8,0-15.9-2.2-19.9-4.4
	L892.8,730.7z"/>
<rect x="83.2" y="234.3" class="st2" width="65.6" height="65.6"/>
<rect x="83.2" y="299.9" class="st2" width="65.6" height="65.6"/>
<rect x="83.2" y="365.5" class="st2" width="65.6" height="65.6"/>
<rect x="83.2" y="431.1" class="st2" width="65.6" height="65.6"/>
<rect x="148.8" y="431.1" class="st2" width="65.6" height="65.6"/>
<rect x="83.2" y="496.7" class="st2" width="65.6" height="65.6"/>
<rect x="83.2" y="562.3" class="st2" width="65.6" height="65.6"/>
<rect x="148.8" y="496.7" class="st2" width="65.6" height="65.6"/>
<rect x="148.8" y="562.3" class="st2" width="65.6" height="65.6"/>
<rect x="411.9" y="234" class="st2" width="65.6" height="65.6"/>
<rect x="411.9" y="299.6" class="st2" width="65.6" height="65.6"/>
<rect x="476.7" y="234" class="st2" width="65.6" height="65.6"/>
<rect x="411.9" y="365.2" class="st2" width="65.6" height="65.6"/>
<rect x="411.9" y="430.8" class="st2" width="65.6" height="65.6"/>
<rect x="476.7" y="365.2" class="st2" width="65.6" height="65.6"/>
<rect x="476.7" y="430.8" class="st2" width="65.6" height="65.6"/>
<rect x="411.9" y="496.4" class="st2" width="65.6" height="65.6"/>
<rect x="411.9" y="562" class="st2" width="65.6" height="65.6"/>
<rect x="476.7" y="496.4" class="st2" width="65.6" height="65.6"/>
<rect x="476.7" y="562" class="st2" width="65.6" height="65.6"/>
<rect x="477.9" y="234.5" class="st2" width="65.6" height="65.6"/>
<rect x="543.5" y="234.5" class="st2" width="65.6" height="65.6"/>
<rect x="543.5" y="300.1" class="st2" width="65.6" height="65.6"/>
<rect x="477.9" y="365.7" class="st2" width="65.6" height="65.6"/>
<rect x="477.9" y="431.3" class="st2" width="65.6" height="65.6"/>
<rect x="543.5" y="365.7" class="st2" width="65.6" height="65.6"/>
<rect x="543.5" y="431.3" class="st2" width="65.6" height="65.6"/>
<rect x="477.9" y="496.9" class="st2" width="65.6" height="65.6"/>
<rect x="477.9" y="562.5" class="st2" width="65.6" height="65.6"/>
<rect x="543.5" y="496.9" class="st2" width="65.6" height="65.6"/>
<rect x="543.5" y="562.5" class="st2" width="65.6" height="65.6"/>
<linearGradient id="SVGID_2_" gradientUnits="userSpaceOnUse" x1="214.4247" y1="974.0705" x2="410.6748" y2="974.0705" gradientTransform="matrix(1 0 0 -1 0 1404.5693)">
	<stop  offset="4.000000e-02" style="stop-color:#9966FF"/>
	<stop  offset="0.5" style="stop-color:#330099"/>
	<stop  offset="1" style="stop-color:#220066"/>
</linearGradient>
<polyline class="st4" points="214.4,234.5 410.7,495.7 410.7,626.5 214.4,365.3 "/>
<rect x="148.8" y="234.3" class="st2" width="65.6" height="65.6"/>
<rect x="148.8" y="299.9" class="st2" width="65.6" height="65.6"/>
<rect x="148.8" y="365.5" class="st2" width="65.6" height="65.6"/>
</svg>
